<svg xmlns="http://www.w3.org/2000/svg" viewBox="0 0 1471.6 1844.19"><defs><style>.cls-1,.cls-5{fill:none;}.cls-1,.cls-2,.cls-3{stroke:#000;stroke-miterlimit:10;}.cls-3{fill:#fff;}.cls-4,.cls-6{isolation:isolate;font-size:13.28px;}.cls-4{font-family:Verdana-Bold, Verdana;font-weight:700;}.cls-6{font-family:Helvetica;}.cls-7{letter-spacing:-0.02em;}</style></defs><title>Asset 1</title><g id="Layer_2" data-name="Layer 2"><g id="Layer_1-2" data-name="Layer 1"><path class="cls-1" d="M683.62,62.36h-71L612.46,1541"/><path class="cls-2" d="M612.46,1545.94l-3.32-6.64,3.32,1.66,3.32-1.66Z"/><path class="cls-1" d="M683.62,650.6h-71V1541"/><path class="cls-2" d="M612.65,1545.94l-3.32-6.64,3.32,1.66,3.32-1.66Z"/><path class="cls-1" d="M683.62,432.38h-71L612.46,1541"/><path class="cls-2" d="M612.46,1545.94l-3.32-6.64,3.32,1.66,3.32-1.66Z"/><path class="cls-1" d="M683.62,1343.21h-71L612.47,1541"/><path class="cls-2" d="M612.46,1545.94l-3.31-6.64,3.32,1.66,3.32-1.65Z"/><path class="cls-1" d="M683.62,1011.14h-71L612.46,1541"/><path class="cls-2" d="M612.46,1545.94l-3.32-6.64,3.32,1.66,3.32-1.66Z"/><path class="cls-1" d="M683.62,973.94V949.28H958.76v24.66"/><path class="cls-3" d="M683.62,973.94v246.69H958.76V973.94"/><path class="cls-1" d="M683.62,973.94H958.76"/><text class="cls-4" transform="translate(749.01 968.73)">animal_experiment</text><rect class="cls-5" x="683.62" y="973.94" width="275.15" height="24.67"/><text class="cls-6" transform="translate(688.84 993.39)">article_id</text><rect class="cls-5" x="683.62" y="998.61" width="275.15" height="24.67"/><text class="cls-6" transform="translate(688.84 1018.06)">compound_id</text><rect class="cls-5" x="683.62" y="1023.28" width="275.15" height="24.67"/><text class="cls-6" transform="translate(688.84 1042.73)">virus_id</text><rect class="cls-5" x="683.62" y="1047.95" width="275.15" height="24.67"/><text class="cls-6" transform="translate(688.84 1067.4)">animal_model_id</text><rect class="cls-5" x="683.62" y="1072.62" width="275.15" height="24.67"/><text class="cls-6" transform="translate(688.84 1092.07)">inoculation</text><rect class="cls-5" x="683.62" y="1097.29" width="275.15" height="24.67"/><text class="cls-6" transform="translate(688.84 1116.74)">treatment_type</text><rect class="cls-5" x="683.62" y="1121.95" width="275.15" height="24.67"/><text class="cls-6" transform="translate(688.84 1141.4)">num_subjects</text><rect class="cls-5" x="683.62" y="1146.62" width="275.15" height="24.67"/><text class="cls-6" transform="translate(688.84 1166.07)">num_controls</text><rect class="cls-5" x="683.62" y="1171.29" width="275.15" height="24.67"/><text class="cls-6" transform="translate(688.84 1190.74)">dose</text><rect class="cls-5" x="683.62" y="1195.96" width="275.15" height="24.67"/><text class="cls-6" transform="translate(688.84 1215.41)">treatment_time</text><path class="cls-1" d="M474.89,1682.68l-194.31.19-.16,28.87"/><path class="cls-2" d="M280.4,1716.72l-3.29-6.66,3.31,1.68,3.33-1.64Z"/><path class="cls-1" d="M958.76,625.74l52.38.19-.19,981.45"/><path class="cls-2" d="M1011,1612.36l-3.32-6.64,3.32,1.66,3.32-1.66Z"/><path class="cls-1" d="M958.76,1318.35l52.38.19-.19,288.84"/><path class="cls-2" d="M1011,1612.36l-3.31-6.64,3.31,1.66,3.33-1.66Z"/><path class="cls-1" d="M958.76,407.53l52.38.18L1011,1607.38"/><path class="cls-2" d="M1011,1612.36l-3.32-6.64,3.32,1.66,3.32-1.66Z"/><path class="cls-1" d="M958.76,986.28l52.38.19-.19,620.91"/><path class="cls-2" d="M1011,1612.36l-3.32-6.64,3.32,1.66,3.32-1.66Z"/><path class="cls-1" d="M958.76,37.5l52.38.19L1011,1607.38"/><path class="cls-2" d="M1011,1612.36l-3.32-6.64,3.32,1.66,3.32-1.66Z"/><path class="cls-1" d="M.5,793.68V769H275.65v24.67"/><path class="cls-3" d="M.5,793.68v74H275.65v-74"/><path class="cls-1" d="M.5,793.68H275.65"/><text class="cls-4" transform="translate(95.06 788.46)">virus strain</text><rect class="cls-5" x="0.5" y="793.68" width="275.15" height="24.67"/><text class="cls-6" transform="translate(5.72 813.13)">name</text><rect class="cls-5" x="0.5" y="818.35" width="275.15" height="24.67"/><text class="cls-6" transform="translate(5.72 837.8)">virus_id</text><rect class="cls-5" x="0.5" y="843.01" width="275.15" height="24.67"/><text class="cls-6" transform="translate(5.72 862.46)">description</text><path class="cls-1" d="M275.65,825.94H347l-.17,60.37"/><path class="cls-2" d="M346.8,891.29l-3.3-6.65,3.32,1.67,3.32-1.65Z"/><path class="cls-1" d="M683.62,675.08l-123.34.19V825.94H347l-.17,60.37"/><path class="cls-2" d="M346.8,891.29l-3.3-6.65,3.32,1.67,3.32-1.65Z"/><path class="cls-1" d="M683.62,87H560.28V825.94H347l-.17,60.37"/><path class="cls-2" d="M346.8,891.29l-3.3-6.65,3.32,1.67,3.32-1.65Z"/><path class="cls-1" d="M683.62,1035.62l-123.34.18V825.94H347l-.17,60.37"/><path class="cls-2" d="M346.8,891.29l-3.3-6.65,3.32,1.67,3.32-1.65Z"/><path class="cls-1" d="M683.62,456.86l-123.34.19V825.94H347l-.17,60.37"/><path class="cls-2" d="M346.8,891.29l-3.3-6.65,3.32,1.67,3.32-1.65Z"/><path class="cls-1" d="M683.62,699.75l-545.36.19-.17,63"/><path class="cls-2" d="M138.07,768l-3.3-6.65,3.32,1.67,3.32-1.66Z"/><path class="cls-1" d="M683.62,111.51l-545.36.19L138.07,763"/><path class="cls-2" d="M138.07,768l-3.32-6.65,3.32,1.67,3.32-1.67Z"/><path class="cls-1" d="M209.23,917V892.35H484.38V917"/><path class="cls-3" d="M209.23,917v98.67H484.38V917"/><path class="cls-1" d="M209.23,917H484.38"/><text class="cls-4" transform="translate(327.77 911.8)">virus</text><rect class="cls-5" x="209.23" y="917.02" width="275.15" height="24.67"/><text class="cls-6" transform="translate(214.45 936.47)">name</text><rect class="cls-5" x="209.23" y="941.69" width="275.15" height="24.67"/><text class="cls-6" transform="translate(214.45 961.14)">type</text><path class="cls-1" d="M484.38,978.69l19,.19v-112H347l-.14,19.39"/><path class="cls-2" d="M346.81,891.29l-3.27-6.66,3.31,1.68,3.33-1.64Z"/><rect class="cls-5" x="209.23" y="966.35" width="275.15" height="24.67"/><text class="cls-6" transform="translate(214.45 985.8)">primary_virus_id</text><rect class="cls-5" x="209.23" y="991.02" width="275.15" height="24.67"/><text class="cls-6" transform="translate(214.45 1010.47)">description</text><path class="cls-1" d="M683.62,1367.69l-123.34.19V825.94H347l-.17,60.37"/><path class="cls-2" d="M346.8,891.29l-3.3-6.65,3.32,1.67,3.32-1.65Z"/><path class="cls-1" d="M683.62,1060.28l-336.63.19v25.08"/><path class="cls-2" d="M347,1090.53l-3.32-6.64,3.32,1.66,3.32-1.66Z"/><path class="cls-1" d="M209.23,1116.26v-24.67H484.38v24.67"/><path class="cls-3" d="M209.23,1116.26v51.24H484.38v-51.24"/><path class="cls-1" d="M209.23,1116.26H484.38"/><text class="cls-4" transform="translate(293.52 1111.04)">animal_model</text><rect class="cls-5" x="209.23" y="1116.26" width="275.15" height="24.67"/><text class="cls-6" transform="translate(214.45 1135.71)">name</text><rect class="cls-5" x="209.23" y="1140.93" width="275.15" height="24.67"/><text class="cls-6" transform="translate(214.45 1160.38)">description</text><path class="cls-1" d="M958.76,773.75l204.18.19-.17,45.95"/><path class="cls-2" d="M1162.75,824.87l-3.29-6.65,3.31,1.67,3.33-1.65Z"/><path class="cls-1" d="M958.76,136.18l204.18.18-.19,683.53"/><path class="cls-2" d="M1162.75,824.87l-3.32-6.64,3.32,1.66,3.32-1.66Z"/><path class="cls-1" d="M484.38,1269l128.27.19L612.46,1541"/><path class="cls-2" d="M612.46,1545.94l-3.31-6.64,3.31,1.66,3.33-1.66Z"/><path class="cls-1" d="M683.62,613.41V588.74H958.76v24.67"/><path class="cls-3" d="M683.62,613.41V892.35H958.76V613.41"/><path class="cls-1" d="M683.62,613.41H958.76"/><text class="cls-4" transform="translate(727.59 608.19)">entry_assay_experiment</text><rect class="cls-5" x="683.62" y="613.41" width="275.15" height="24.67"/><text class="cls-6" transform="translate(688.84 632.86)">article_id</text><rect class="cls-5" x="683.62" y="638.08" width="275.15" height="24.67"/><text class="cls-6" transform="translate(688.84 657.53)">compound_id</text><rect class="cls-5" x="683.62" y="662.75" width="275.15" height="24.67"/><text class="cls-6" transform="translate(688.84 682.2)">virus_id</text><rect class="cls-5" x="683.62" y="687.41" width="275.15" height="24.67"/><text class="cls-6" transform="translate(688.84 706.86)">virus_strain_id</text><rect class="cls-5" x="683.62" y="712.08" width="275.15" height="24.67"/><text class="cls-6" transform="translate(688.84 731.53)">e<tspan class="cls-7" x="7.39" y="0">f</tspan><tspan x="10.84" y="0">fector_cells_id</tspan></text><rect class="cls-5" x="683.62" y="736.75" width="275.15" height="24.67"/><text class="cls-6" transform="translate(688.84 756.2)">measurement_id</text><rect class="cls-5" x="683.62" y="761.42" width="275.15" height="24.67"/><text class="cls-6" transform="translate(688.84 780.87)">cells_id</text><rect class="cls-5" x="683.62" y="786.09" width="275.15" height="24.67"/><text class="cls-6" transform="translate(688.84 805.54)">drug_timing</text><rect class="cls-5" x="683.62" y="810.76" width="275.15" height="24.67"/><text class="cls-6" transform="translate(688.84 830.2)">ec50</text><rect class="cls-5" x="683.62" y="835.42" width="275.15" height="24.67"/><text class="cls-6" transform="translate(688.84 854.87)">e<tspan class="cls-7" x="7.39" y="0">f</tspan><tspan x="10.84" y="0">fector_cells_number</tspan></text><rect class="cls-5" x="683.62" y="860.09" width="275.15" height="24.67"/><text class="cls-6" transform="translate(688.84 879.54)">cells_number</text><path class="cls-1" d="M683.62,1306v-24.67H958.76V1306"/><path class="cls-3" d="M683.62,1306v148H958.76V1306"/><path class="cls-1" d="M683.62,1306H958.76"/><text class="cls-4" transform="translate(746.84 1300.8)">clinical_experiment</text><rect class="cls-5" x="683.62" y="1306.02" width="275.15" height="24.67"/><text class="cls-6" transform="translate(688.84 1325.47)">article_id</text><rect class="cls-5" x="683.62" y="1330.68" width="275.15" height="24.67"/><text class="cls-6" transform="translate(688.84 1350.13)">compound_ids</text><rect class="cls-5" x="683.62" y="1355.35" width="275.15" height="24.67"/><text class="cls-6" transform="translate(688.84 1374.8)">virus_id</text><rect class="cls-5" x="683.62" y="1380.02" width="275.15" height="24.67"/><text class="cls-6" transform="translate(688.84 1399.47)">regimen_detail</text><rect class="cls-5" x="683.62" y="1404.69" width="275.15" height="24.67"/><text class="cls-6" transform="translate(688.84 1424.14)">study_type</text><rect class="cls-5" x="683.62" y="1429.36" width="275.15" height="24.67"/><text class="cls-6" transform="translate(688.84 1448.81)">num_subjects</text><path class="cls-1" d="M209.23,1256.68V1232H484.38v24.67"/><path class="cls-3" d="M209.23,1256.68v246.68H484.38V1256.68"/><path class="cls-1" d="M209.23,1256.68H484.38"/><text class="cls-4" transform="translate(265.16 1251.46)">clinical_trial_registry</text><rect class="cls-5" x="209.23" y="1256.68" width="275.15" height="24.67"/><text class="cls-6" transform="translate(214.45 1276.13)">compound_ids</text><rect class="cls-5" x="209.23" y="1281.35" width="275.15" height="24.67"/><text class="cls-6" transform="translate(214.45 1300.8)">recruitment_status</text><rect class="cls-5" x="209.23" y="1306.02" width="275.15" height="24.67"/><text class="cls-6" transform="translate(214.45 1325.47)">treatment_population</text><rect class="cls-5" x="209.23" y="1330.68" width="275.15" height="24.67"/><text class="cls-6" transform="translate(214.45 1350.13)">intervention</text><rect class="cls-5" x="209.23" y="1355.35" width="275.15" height="24.67"/><text class="cls-6" transform="translate(214.45 1374.8)">dosage</text><rect class="cls-5" x="209.23" y="1380.02" width="275.15" height="24.67"/><text class="cls-6" transform="translate(214.45 1399.47)">outcome</text><rect class="cls-5" x="209.23" y="1404.69" width="275.15" height="24.67"/><text class="cls-6" transform="translate(214.45 1424.14)">region</text><rect class="cls-5" x="209.23" y="1429.36" width="275.15" height="24.67"/><text class="cls-6" transform="translate(214.45 1448.81)">num_participants</text><rect class="cls-5" x="209.23" y="1454.03" width="275.15" height="24.67"/><text class="cls-6" transform="translate(214.45 1473.48)">start_date</text><rect class="cls-5" x="209.23" y="1478.69" width="275.15" height="24.67"/><text class="cls-6" transform="translate(214.45 1498.14)">stop_date</text><path class="cls-1" d="M683.62,395.19V370.52H958.76v24.67"/><path class="cls-3" d="M683.62,395.19v148H958.76v-148"/><path class="cls-1" d="M683.62,395.19H958.76"/><text class="cls-4" transform="translate(740.63 389.97)">biochem_experiment</text><rect class="cls-5" x="683.62" y="395.19" width="275.15" height="24.67"/><text class="cls-6" transform="translate(688.84 414.64)">article_id</text><rect class="cls-5" x="683.62" y="419.86" width="275.15" height="24.67"/><text class="cls-6" transform="translate(688.84 439.31)">compound_id</text><rect class="cls-5" x="683.62" y="444.53" width="275.15" height="24.67"/><text class="cls-6" transform="translate(688.84 463.98)">virus_id</text><rect class="cls-5" x="683.62" y="469.2" width="275.15" height="24.67"/><text class="cls-6" transform="translate(688.84 488.65)">virus_strain_id</text><rect class="cls-5" x="683.62" y="493.86" width="275.15" height="24.67"/><text class="cls-6" transform="translate(688.84 513.31)">biochem_target</text><rect class="cls-5" x="683.62" y="518.53" width="275.15" height="24.67"/><text class="cls-6" transform="translate(688.84 537.98)">ic50</text><path class="cls-1" d="M683.62,25.17V.5H958.76V25.17"/><path class="cls-3" d="M683.62,25.17V345.85H958.76V25.17"/><path class="cls-1" d="M683.62,25.17H958.76"/><text class="cls-4" transform="translate(729.84 19.95)">cell_culture_experiment</text><rect class="cls-5" x="683.62" y="25.17" width="275.15" height="24.67"/><text class="cls-6" transform="translate(688.84 44.62)">article_id</text><rect class="cls-5" x="683.62" y="49.84" width="275.15" height="24.67"/><text class="cls-6" transform="translate(688.84 69.29)">compound_id</text><rect class="cls-5" x="683.62" y="74.5" width="275.15" height="24.67"/><text class="cls-6" transform="translate(688.84 93.95)">virus_id</text><rect class="cls-5" x="683.62" y="99.17" width="275.15" height="24.67"/><text class="cls-6" transform="translate(688.84 118.62)">virus_strain_id</text><rect class="cls-5" x="683.62" y="123.84" width="275.15" height="24.67"/><text class="cls-6" transform="translate(688.84 143.29)">cells_id</text><rect class="cls-5" x="683.62" y="148.51" width="275.15" height="24.67"/><text class="cls-6" transform="translate(688.84 167.96)">measurement_id</text><rect class="cls-5" x="683.62" y="173.18" width="275.15" height="24.67"/><text class="cls-6" transform="translate(688.84 192.63)">moi</text><rect class="cls-5" x="683.62" y="197.85" width="275.15" height="24.67"/><text class="cls-6" transform="translate(688.84 217.3)">duration_of_infection</text><rect class="cls-5" x="683.62" y="222.51" width="275.15" height="24.67"/><text class="cls-6" transform="translate(688.84 241.96)">drug_concentration</text><rect class="cls-5" x="683.62" y="247.18" width="275.15" height="24.67"/><text class="cls-6" transform="translate(688.84 266.63)">drug_timing</text><rect class="cls-5" x="683.62" y="271.85" width="275.15" height="24.67"/><text class="cls-6" transform="translate(688.84 291.3)">ec50</text><rect class="cls-5" x="683.62" y="296.52" width="275.15" height="24.67"/><text class="cls-6" transform="translate(688.84 315.97)">cc50</text><rect class="cls-5" x="683.62" y="321.19" width="275.15" height="24.67"/><text class="cls-6" transform="translate(688.84 340.64)">pcnt_inhibition</text><path class="cls-1" d="M474.89,1571.67V1547H750v24.66"/><path class="cls-3" d="M474.89,1571.67V1843H750V1571.67"/><path class="cls-1" d="M474.89,1571.67H750"/><text class="cls-4" transform="translate(573.04 1566.46)">compound</text><rect class="cls-5" x="474.89" y="1571.67" width="275.15" height="24.67"/><text class="cls-6" transform="translate(480.11 1591.12)">name</text><rect class="cls-5" x="474.89" y="1596.34" width="275.15" height="24.67"/><text class="cls-6" transform="translate(480.11 1615.79)">synonyms</text><rect class="cls-5" x="474.89" y="1621.01" width="275.15" height="24.67"/><text class="cls-6" transform="translate(480.11 1640.46)">drug_class</text><rect class="cls-5" x="474.89" y="1645.68" width="275.15" height="24.67"/><text class="cls-6" transform="translate(480.11 1665.13)">category</text><rect class="cls-5" x="474.89" y="1670.35" width="275.15" height="24.67"/><text class="cls-6" transform="translate(480.11 1689.8)">compound_target_id</text><rect class="cls-5" x="474.89" y="1695.01" width="275.15" height="24.67"/><text class="cls-6" transform="translate(480.11 1714.47)">molecular_weight</text><path class="cls-1" d="M750,1732l19,.19V1528H612.65l-.13,12.93"/><path class="cls-2" d="M612.47,1545.94l-3.25-6.67,3.3,1.69,3.34-1.62Z"/><rect class="cls-5" x="474.89" y="1719.68" width="275.15" height="24.67"/><text class="cls-6" transform="translate(480.11 1739.13)">primary_compound_id</text><rect class="cls-5" x="474.89" y="1744.35" width="275.15" height="24.67"/><text class="cls-6" transform="translate(480.11 1763.8)">molecular_formula</text><rect class="cls-5" x="474.89" y="1769.02" width="275.15" height="24.67"/><text class="cls-6" transform="translate(480.11 1788.47)">smiles</text><rect class="cls-5" x="474.89" y="1793.69" width="275.15" height="24.67"/><text class="cls-6" transform="translate(480.11 1813.14)">pubchem_cid</text><rect class="cls-5" x="474.89" y="1818.36" width="275.15" height="24.67"/><text class="cls-6" transform="translate(480.11 1837.81)">description</text><path class="cls-1" d="M142.82,1742.45v-24.66H418v24.66"/><path class="cls-3" d="M142.82,1742.45v98.68H418v-98.68"/><path class="cls-1" d="M142.82,1742.45H418"/><text class="cls-4" transform="translate(213.84 1737.24)">compound_target</text><rect class="cls-5" x="142.82" y="1742.45" width="275.15" height="24.67"/><text class="cls-6" transform="translate(148.03 1761.9)">name</text><rect class="cls-5" x="142.82" y="1767.12" width="275.15" height="24.67"/><text class="cls-6" transform="translate(148.03 1786.57)">synonyms</text><path class="cls-1" d="M418,1804.12l19,.19v-105.5H280.58l-.13,12.93"/><path class="cls-2" d="M280.4,1716.72l-3.26-6.67,3.31,1.69,3.34-1.62Z"/><rect class="cls-5" x="142.82" y="1791.79" width="275.15" height="24.67"/><text class="cls-6" transform="translate(148.03 1811.24)">primary_compound_target_id</text><rect class="cls-5" x="142.82" y="1816.46" width="275.15" height="24.67"/><text class="cls-6" transform="translate(148.03 1835.91)">description</text><path class="cls-1" d="M873.37,1638.09v-24.67h275.15v24.67"/><path class="cls-3" d="M873.37,1638.09v174.57h275.15V1638.09"/><path class="cls-1" d="M873.37,1638.09h275.15"/><text class="cls-4" transform="translate(974.78 1632.87)">reference</text><rect class="cls-5" x="873.37" y="1638.09" width="275.15" height="24.67"/><text class="cls-6" transform="translate(878.59 1657.54)">doi</text><rect class="cls-5" x="873.37" y="1662.76" width="275.15" height="24.67"/><text class="cls-6" transform="translate(878.59 1682.21)">pmid</text><rect class="cls-5" x="873.37" y="1687.42" width="275.15" height="24.67"/><text class="cls-6" transform="translate(878.59 1706.87)">pmcid</text><rect class="cls-5" x="873.37" y="1712.09" width="275.15" height="24.67"/><text class="cls-6" transform="translate(878.59 1731.54)">title</text><rect class="cls-5" x="873.37" y="1736.76" width="275.15" height="24.67"/><text class="cls-6" transform="translate(878.59 1756.21)">authors</text><rect class="cls-5" x="873.37" y="1761.43" width="275.15" height="24.67"/><text class="cls-6" transform="translate(878.59 1780.88)">journal</text><rect class="cls-5" x="873.37" y="1786.1" width="275.15" height="24.67"/><text class="cls-6" transform="translate(878.59 1805.55)">year</text><path class="cls-1" d="M1025.18,850.6V825.94h275.14V850.6"/><path class="cls-3" d="M1025.18,850.6v74h275.14v-74"/><path class="cls-1" d="M1025.18,850.6h275.14"/><text class="cls-4" transform="translate(1145.48 845.39)">cells</text><rect class="cls-5" x="1025.18" y="850.6" width="275.15" height="24.67"/><text class="cls-6" transform="translate(1030.4 870.05)">name</text><path class="cls-1" d="M1300.32,887.61l19,.19V807H1162.94l-.13,12.93"/><path class="cls-2" d="M1162.76,824.87l-3.25-6.67,3.3,1.69,3.34-1.62Z"/><rect class="cls-5" x="1025.18" y="875.27" width="275.15" height="24.67"/><text class="cls-6" transform="translate(1030.4 894.72)">primary_cells_id</text><rect class="cls-5" x="1025.18" y="899.94" width="275.15" height="24.67"/><text class="cls-6" transform="translate(1030.4 919.39)">description</text><path class="cls-1" d="M958.76,160.84l375,.19-.19,554.5"/><path class="cls-2" d="M1333.53,720.51l-3.32-6.64,3.32,1.66,3.32-1.66Z"/><path class="cls-1" d="M958.76,749.08l75.91.19V161.79h299l-.19,553.74"/><path class="cls-2" d="M1333.53,720.51l-3.32-6.64,3.32,1.66,3.32-1.66Z"/><path class="cls-1" d="M1196,746.24V721.57H1471.1v24.67"/><path class="cls-3" d="M1196,746.24v51.23H1471.1V746.24"/><path class="cls-1" d="M1196,746.24H1471.1"/><text class="cls-4" transform="translate(1281.6 741.02)">measurement</text><rect class="cls-5" x="1195.96" y="746.24" width="275.15" height="24.67"/><text class="cls-6" transform="translate(1201.18 765.69)">name</text><rect class="cls-5" x="1195.96" y="770.91" width="275.15" height="24.67"/><text class="cls-6" transform="translate(1201.18 790.36)">description</text></g></g></svg>